<?xml version="1.0" encoding="utf-8"?>
<!-- Generator: Adobe Illustrator 16.0.0, SVG Export Plug-In . SVG Version: 6.00 Build 0)  -->
<!DOCTYPE svg PUBLIC "-//W3C//DTD SVG 1.1//EN" "http://www.w3.org/Graphics/SVG/1.1/DTD/svg11.dtd">
<svg version="1.1"
	 id="svg10" xmlns:dc="http://purl.org/dc/elements/1.1/" xmlns:cc="http://creativecommons.org/ns#" xmlns:rdf="http://www.w3.org/1999/02/22-rdf-syntax-ns#" xmlns:svg="http://www.w3.org/2000/svg" xmlns:sodipodi="http://sodipodi.sourceforge.net/DTD/sodipodi-0.dtd" xmlns:inkscape="http://www.inkscape.org/namespaces/inkscape" sodipodi:docname="this-way-up-bottle.jpg" inkscape:version="0.48+devel r10611"
	 xmlns="http://www.w3.org/2000/svg" xmlns:xlink="http://www.w3.org/1999/xlink" x="0px" y="0px" width="297px" height="450px"
	 viewBox="0 0 297 450" enable-background="new 0 0 297 450" xml:space="preserve">
<path d="M198.5,162.783c0-13.545-12.791-25.146-30.959-30.007V48.675c1.067-0.917,1.758-2.26,1.758-3.778V31.614
	c0-1.518-0.69-2.861-1.758-3.778v-4.6c0-2.761-4.478-5-10-5h-18.082c-5.523,0-10,2.239-10,5v4.6
	c-1.067,0.917-1.758,2.26-1.758,3.778v13.283c0,1.518,0.69,2.861,1.758,3.778v84.101c-18.167,4.861-30.959,16.462-30.959,30.007
	c0,0.271,0.021,0.538,0.031,0.807H98.5v229.366v5.554v15.745c0,5.523,8.954,10,20,10h60c11.046,0,20-4.477,20-10V398.51v-5.554
	V163.59h-0.031C198.479,163.321,198.5,163.054,198.5,162.783z"/>
</svg>
